<svg width="416" height="448" viewBox="0 0 416 448" fill="none" xmlns="http://www.w3.org/2000/svg">
<path d="M208 224C230.152 224 251.806 217.431 270.224 205.125C288.642 192.818 302.998 175.326 311.475 154.861C319.952 134.395 322.17 111.876 317.848 90.1499C313.526 68.424 302.859 48.4675 287.196 32.804C271.532 17.1405 251.576 6.47358 229.85 2.15204C208.124 -2.16951 185.605 0.0484667 165.139 8.52548C144.674 17.0025 127.182 31.3578 114.875 49.7761C102.569 68.1944 96 89.8485 96 112C96 141.704 107.8 170.192 128.804 191.196C149.808 212.2 178.296 224 208 224ZM208 256C138.58 256 0 298.88 0 384V448H416V384C416 298.88 277.42 256 208 256Z" fill="white"/>
</svg>
